<?xml version="1.0" encoding="utf-8"?>
<!-- Generator: Adobe Illustrator 27.5.0, SVG Export Plug-In . SVG Version: 6.00 Build 0)  -->
<svg version="1.1" xmlns="http://www.w3.org/2000/svg" xmlns:xlink="http://www.w3.org/1999/xlink" x="0px" y="0px"
	 viewBox="0 0 640.043 500" style="enable-background:new 0 0 640.043 500;" xml:space="preserve">
<g id="BACKGROUND">
</g>
<g id="OBJECTS">
	<g>
		<g>
			<path style="fill:none;stroke:#563B24;stroke-width:3;stroke-linecap:round;stroke-linejoin:round;stroke-miterlimit:10;" d="
				M106.969,65.154c-5.989,2.294-13.892,8.132-16.433,16.772c-2.541,8.64-3.219,15.105-4.235,18.31
				c-1.016,3.206-10.081,9.434-11.181,14.386c-1.017,4.576,3.388,6.157,3.388,6.157s-1.525,6.212-0.508,13.667
				c1.017,7.454,5.421,15.078,18.805,12.706c13.384-2.372,16.603-2.372,18.805,2.202c2.202,4.574,3.05,7.115,3.05,7.115
				l32.189-16.211c0,0-2.88-7.169-3.049-10.218c-0.169-3.049,5.591-9.432,8.301-21.319c2.711-11.887,0.827-30.353-14.57-40.518
				C128.266,59.447,112.275,63.121,106.969,65.154z"/>
			<path style="fill:none;stroke:#563B24;stroke-width:3;stroke-linecap:round;stroke-linejoin:round;stroke-miterlimit:10;" d="
				M77.823,132.906c0,0,5.936,2.217,9.663-5.746"/>
			<path style="fill:none;stroke:#563B24;stroke-width:3;stroke-linecap:round;stroke-linejoin:round;stroke-miterlimit:10;" d="
				M91.043,101.656c0,0-1.016,4.667,1.694,6.192c2.711,1.525,6.438-0.739,7.624-2.995"/>
			<g>
				<g>
					<path style="fill:#D39C9C;" d="M102.46,94.071l36.999,14.738c3.087,1.23,6.546-1.082,6.381-4.401
						c-0.002-0.037-0.004-0.075-0.006-0.112c-0.06-0.912,0.11-1.816,0.594-2.591c1.281-2.05,3.209-6.404-0.366-10.212
						c-0.874-0.931-1.344-2.157-1.308-3.434c0.053-1.917-0.439-4.872-3.296-7.48c-2.089-1.907-4.705-2.213-6.701-2.08
						c-1.771,0.118-3.404-0.85-4.261-2.404c-1.065-1.93-2.921-4.122-5.912-4.328c-2.648-0.183-4.363,0.747-5.424,1.748
						c-1.151,1.086-2.792,1.412-4.328,1.029c-1.643-0.41-3.758-0.479-5.644,0.882c-2.19,1.58-2.971,3.808-3.21,5.615
						c-0.219,1.66-1.271,3.061-2.8,3.742c-0.985,0.439-2.054,1.177-2.901,2.418C98.623,89.628,99.731,92.984,102.46,94.071z"/>
					<g>
						
							<path style="fill:none;stroke:#FFFFFF;stroke-width:3.1353;stroke-linecap:round;stroke-linejoin:round;stroke-miterlimit:10;" d="
							M118.023,89.203c-3,3.562-7.687-3.375-2.625-6.375c5.721-3.39,9.374,5.812,8.812,8.332c-0.562,2.52-3.634,10.127-3.634,10.127
							"/>
						
							<path style="fill:none;stroke:#FFFFFF;stroke-width:3.1353;stroke-linecap:round;stroke-linejoin:round;stroke-miterlimit:10;" d="
							M124.21,91.16c0,0,4.312-7.582,8.625-6.457c4.312,1.125,1.875,6.984-1.687,5.397"/>
						
							<path style="fill:none;stroke:#FFFFFF;stroke-width:3.1353;stroke-linecap:round;stroke-linejoin:round;stroke-miterlimit:10;" d="
							M120.576,101.287c0,0,13.081-11.991,16.196-5.029c2.25,5.029-4.5,7.786-5.437,3.459"/>
					</g>
				</g>
				<path style="fill:none;stroke:#FCBEBE;stroke-width:2.61;stroke-linecap:round;stroke-miterlimit:10;" d="M143.896,110.577
					c0,0,2.812-3.937,1.687-7.687c0,0,6.375-7.393-1.125-12.789c0,0,1.7-5.231-3-9.522c-3.937-3.595-9.749-1.5-9.749-1.5
					s-1.687-6.937-7.125-7.312c-5.437-0.375-6.937,3.937-6.937,3.937s-4.687-3-8.458-0.278c-4.305,3.107-3.166,8.715-3.166,8.715
					s-6.937-0.188-7.312,8.437"/>
			</g>
		</g>
		<text transform="matrix(1 0 0 1 51.1742 189.8884)"><tspan x="0" y="0" style="fill:#D39C9C; font-family:'BlackJack'; font-size:29.454px;">Mental</tspan><tspan x="16.647" y="24.921" style="fill:#563B24; font-family:'ArchivoBlack-Regular'; font-size:28px;">health</tspan></text>
	</g>
	<g>
		<g>
			<path style="fill:#563B24;" d="M309.771,156.43c4.34,0.173,13.775,0.013,20.745-5.483c5.954-4.696,6.569-14.598,6.569-18.401
				c0-3.803,0.173-10.199,1.21-11.928c1.037-1.729,3.803-1.902,3.803-1.902s-10.771-1.696-14.003,6.569
				c-2.056,5.26-0.691,15.559-4.322,21.609c-1.124,1.874-2.896,3.118-4.805,3.942c-4.353,1.879-9.197-1.443-9.197-6.184V124.73
				c0-2.42,0.096-4.272,0.864-6.588c1.564-4.716,9.681-6.378,9.681-6.378s-3.931-1.903-7.377-1.642
				c-4.544,0.344-7.508,4.09-7.508,4.09s-2.637-3.534-7.507-3.931c-3.756-0.306-7.378,1.483-7.378,1.483s8.021,1.345,9.681,6.378
				c0.764,2.316,0.864,4.167,0.864,6.588v19.922c0,4.742-4.844,8.063-9.197,6.184c-1.91-0.824-3.681-2.068-4.806-3.942
				c-3.63-6.051-2.4-16.299-4.322-21.609c-2.799-7.737-14.003-6.569-14.003-6.569s2.766,0.173,3.803,1.902
				c1.037,1.729,1.21,8.125,1.21,11.928c0,3.803,0.615,13.705,6.569,18.401c6.97,5.497,16.405,5.656,20.745,5.483H309.771z"/>
			<g>
				<path style="opacity:0.7;fill:#D39C9C;" d="M305.535,60.515c0,0-8.822,9.75-8.822,24.144c0,14.394,8.822,23.215,8.822,23.215
					s8.615-10.911,8.615-23.68C314.15,71.427,305.535,60.515,305.535,60.515z"/>
				<path style="opacity:0.7;fill:#D39C9C;" d="M335.402,71.155c0,0-12.998,1.988-22.088,13.148
					c-9.09,11.16-7.822,23.571-7.822,23.571s13.571-3.019,21.634-12.919S335.402,71.155,335.402,71.155z"/>
				<path style="opacity:0.7;fill:#D39C9C;" d="M275.461,71.155c0,0,12.998,1.988,22.088,13.148
					c9.09,11.16,7.822,23.571,7.822,23.571s-13.57-3.019-21.634-12.919S275.461,71.155,275.461,71.155z"/>
			</g>
			<path style="fill:#D39C9C;" d="M351.607,87.397c0,0-11.072,1.694-18.816,11.2c-7.744,9.507-6.663,20.079-6.663,20.079
				s11.56-2.572,18.429-11.005C351.427,99.239,351.607,87.397,351.607,87.397z"/>
			<path style="fill:#D39C9C;" d="M259.131,87.397c0,0,11.072,1.694,18.816,11.2c7.743,9.507,6.663,20.079,6.663,20.079
				s-11.56-2.572-18.429-11.005C259.311,99.239,259.131,87.397,259.131,87.397z"/>
		</g>
		<text transform="matrix(1 0 0 1 240.4902 189.8884)"><tspan x="0" y="0" style="fill:#D39C9C; font-family:'BlackJack'; font-size:29.454px;">Mental</tspan><tspan x="16.647" y="24.921" style="fill:#563B24; font-family:'ArchivoBlack-Regular'; font-size:28px;">health</tspan></text>
	</g>
	<g>
		<g>
			<path style="fill:#D39C9C;" d="M491.932,306.656c0,0-9.467-9.141-13.711-7.182c-4.244,1.959-6.202,15.996,6.855,28.401
				c13.058,12.405,23.178-11.426,25.136-16.649C512.171,306.004,510.213,288.375,491.932,306.656z"/>
			<g>
				
					<path style="fill:none;stroke:#563B24;stroke-width:3.1826;stroke-linecap:round;stroke-linejoin:round;stroke-miterlimit:10;" d="
					M504.215,368.656c0,0,0.915-2.746,3.295-7.688c2.38-4.942,5.858-4.942,20.319-2.38c14.461,2.563,19.221-5.675,20.319-13.729
					c1.098-8.054-0.549-14.767-0.549-14.767s4.759-1.708,3.661-6.652c-1.189-5.351-10.983-12.08-12.082-15.544
					c-1.098-3.464-1.831-10.448-4.576-19.784c-2.746-9.336-11.285-15.643-17.756-18.122c-5.733-2.197-23.012-6.167-37.343,3.295
					c-16.636,10.983-18.259,30.849-15.743,43.78c1.481,7.61,7.971,22.753,22.032,21.672c14.061-1.082,32.232-27.69,28.988-38.29
					c-3.245-10.6-19.253,1.397-20.335,12.596c-1.082,11.199,9.951,2.979-2.596-10.866c-12.547-13.845-18.82,6.922-3.245,21.2"/>
				
					<path style="fill:none;stroke:#563B24;stroke-width:3.1826;stroke-linecap:round;stroke-linejoin:round;stroke-miterlimit:10;" d="
					M548.338,343.196c0,0-6.413,2.395-10.441-6.208"/>
				
					<path style="fill:none;stroke:#563B24;stroke-width:3.1826;stroke-linecap:round;stroke-linejoin:round;stroke-miterlimit:10;" d="
					M534.053,309.43c0,0,1.098,5.043-1.831,6.69c-2.929,1.648-6.956-0.798-8.237-3.236"/>
			</g>
		</g>
		<text transform="matrix(1 0 0 1 442.2412 407.0867)"><tspan x="0" y="0" style="fill:#D39C9C; font-family:'BlackJack'; font-size:29.454px;">Mental</tspan><tspan x="16.647" y="24.922" style="fill:#563B24; font-family:'ArchivoBlack-Regular'; font-size:28px;">health</tspan></text>
	</g>
	<g>
		<g>
			<path style="fill:#D39C9C;" d="M299.921,353.841c-1.308,4.316-3.562,8.475-11.65,13.377c-9.726,5.895-30.147-7.108-18.873-24.755
				c8.397-13.143,23.53-19.118,27.451-15.686c2.509,2.195,0.49,6.128-4.167,6.694c-4.657,0.567-12.99-0.812-22.059-15.028
				c-9.069-14.216-5.392-28.677-5.392-28.677s8.744,1.596,18.383,8.088c9.715,6.544,12.56,12.659,14.101,17.751
				C300.05,323.318,303.006,343.659,299.921,353.841z"/>
			<path style="fill:#D39C9C;" d="M312.466,352.757c0,0,2.696,9.559,10.784,14.461c9.726,5.895,30.147-7.108,18.873-24.755
				c-8.397-13.143-23.53-19.118-27.451-15.686c-2.509,2.195-0.49,6.128,4.167,6.694c4.657,0.567,12.99-0.812,22.059-15.028
				c9.069-14.216,5.392-28.677,5.392-28.677s-8.549,1.896-18.383,8.088C313.513,306.919,305.318,333.466,312.466,352.757z"/>
			
				<path style="fill:none;stroke:#563B24;stroke-width:3.1826;stroke-linecap:round;stroke-linejoin:round;stroke-miterlimit:10;" d="
				M296.52,308.657c0,0-2.941-11.275-13.235-16.667c-10.294-5.392-18.382-8.088-18.382-8.088s-3.677,14.461,5.392,28.677
				c9.069,14.216,17.402,15.595,22.059,15.028c4.657-0.567,6.676-4.499,4.167-6.695c-3.922-3.431-19.054,2.544-27.451,15.687
				c-11.275,17.647,9.147,30.65,18.873,24.755c8.088-4.902,10.784-14.461,10.784-14.461"/>
			<path style="fill:#563B24;" d="M305.27,303.02c0,0-3.186,9.314-3.186,19.118c0,9.804,3.186,17.157,3.186,17.157
				s4.167-8.333,4.167-17.157C309.437,314.539,305.27,303.02,305.27,303.02z"/>
			<path style="fill:#563B24;" d="M306.655,310.104c0,0,0-2.578,0-5.405c1.27,0.051,4.031,0.004,6.071-1.605
				c1.743-1.374,1.923-4.272,1.923-5.385s0.051-2.985,0.354-3.491c0.303-0.506,1.113-0.557,1.113-0.557s-3.385-0.689-4.098,1.922
				c-0.435,1.594-0.202,4.553-1.265,6.324c-1.062,1.771-4.098,1.619-4.098,1.619c0-2.88,0-5.687,0-6.02c0-0.708,0-2.064,0.253-2.732
				c0.426-1.125,2.833-1.062,2.833-1.062s-1.714-0.455-4.356-0.455c-2.37,0-4.356,0.455-4.356,0.455s2.407-0.062,2.833,1.062
				c0.253,0.668,0.253,2.024,0.253,2.732c0,0.333,0,3.14,0,6.02c0,0-3.035,0.152-4.098-1.619c-1.062-1.771-0.677-4.779-1.265-6.324
				c-0.886-2.327-4.098-1.922-4.098-1.922s0.81,0.051,1.113,0.557c0.304,0.506,0.354,2.378,0.354,3.491s0.18,4.011,1.923,5.385
				c2.04,1.609,4.801,1.655,6.071,1.605c0,2.827,0,5.405,0,5.405H306.655z"/>
			
				<path style="fill:none;stroke:#563B24;stroke-width:3.1826;stroke-linecap:round;stroke-linejoin:round;stroke-miterlimit:10;" d="
				M314.343,308.657c0,0,2.941-11.275,13.235-16.667c10.294-5.392,18.383-8.088,18.383-8.088s3.676,14.461-5.392,28.677
				c-9.069,14.216-17.402,15.595-22.059,15.028c-4.657-0.567-6.676-4.499-4.167-6.695c3.922-3.431,19.054,2.544,27.451,15.687
				c11.275,17.647-9.147,30.65-18.873,24.755c-8.088-4.902-10.784-14.461-10.784-14.461"/>
		</g>
		<text transform="matrix(1 0 0 1 240.4902 407.0867)"><tspan x="0" y="0" style="fill:#D39C9C; font-family:'BlackJack'; font-size:29.454px;">Mental</tspan><tspan x="16.647" y="24.922" style="fill:#563B24; font-family:'ArchivoBlack-Regular'; font-size:28px;">health</tspan></text>
	</g>
	<g>
		<g>
			<g>
				
					<path style="fill:none;stroke:#563B24;stroke-width:2.8069;stroke-linecap:round;stroke-linejoin:round;stroke-miterlimit:10;" d="
					M129.357,359.841c0,0-1.422-14.218,5.118-18.199c6.54-3.981,11.09-4.266,13.65-6.54c2.559-2.275,7.678-10.806,11.943-12.796
					c4.265-1.991,8.815-2.275,9.668,0c0.853,2.275-4.266,5.119-5.119,8.247c-0.853,3.128-5.972,13.365-11.374,14.787"/>
				
					<path style="fill:none;stroke:#563B24;stroke-width:2.8069;stroke-linecap:round;stroke-linejoin:round;stroke-miterlimit:10;" d="
					M154.665,311.783c0,0-5.989-0.853-6.54,6.256c-0.551,7.109,0,17.062,0,17.062"/>
				
					<path style="fill:none;stroke:#563B24;stroke-width:2.8069;stroke-linecap:round;stroke-linejoin:round;stroke-miterlimit:10;" d="
					M161.49,305.249c0,0-7.106-1.144-6.825,11.368c0.253,11.285,0,10.507,0,10.507"/>
				
					<path style="fill:none;stroke:#563B24;stroke-width:2.8069;stroke-linecap:round;stroke-linejoin:round;stroke-miterlimit:10;" d="
					M168.314,299.271c0,0-6.825-0.569-6.825,9.668c0,10.237,0,11.764,0,11.764"/>
				
					<path style="fill:none;stroke:#563B24;stroke-width:2.8069;stroke-linecap:round;stroke-linejoin:round;stroke-miterlimit:10;" d="
					M168.314,322.305c0,0,0.284-12.796,0-19.621c-0.284-6.825,7.481-8.481,7.481-8.481s0,25.877,0,31.565
					s-15.744,21.562-21.138,27.534c-5.395,5.972-5.128,15.356-5.128,15.356"/>
			</g>
			<g>
				<path style="fill:#D39C9C;" d="M122.074,309.937c0,0-8.289-14.569-14.569-12.56c-6.28,2.01-6.28,16.752,1.382,20.685
					c7.661,3.932,8.792-3.101,4.521-4.106c-4.27-1.005-16.83,6.44-14.695,14.712c2.135,8.272,18.588,6.07,24.24-3.977
					c0,0,1.859,15.047,11.052,13.129c9.193-1.918,6.029-13.313,3.266-17.081c-2.763-3.768-7.536-4.424-8.038-1.584
					c-0.502,2.84,14.965,5.615,15.197-12.978C144.614,291.474,122.074,309.937,122.074,309.937z"/>
				
					<path style="fill:none;stroke:#563B24;stroke-width:2.8069;stroke-linecap:round;stroke-linejoin:round;stroke-miterlimit:10;" d="
					M120.781,306.058c0,0-8.289-14.569-14.569-12.56c-6.28,2.009-6.28,16.752,1.382,20.685c7.661,3.932,8.792-3.101,4.521-4.106
					c-4.27-1.005-16.83,6.44-14.695,14.712c2.135,8.272,18.588,6.07,24.24-3.978c0,0,1.859,15.047,11.052,13.129
					c9.193-1.918,6.029-13.313,3.266-17.081c-2.763-3.768-7.536-4.424-8.038-1.584c-0.502,2.84,14.966,5.615,15.197-12.978
					c0.183-14.703-13.69-4.906-14.695,3.509"/>
				<g>
					<path style="fill:#563B24;" d="M124.759,298.858c0.418,1.723,0.535,3.247,0.585,4.862c0.034,1.592-0.05,3.176-0.248,4.742
						c-0.224,1.561-0.492,3.114-0.927,4.621c-0.396,1.517-0.934,2.988-1.507,4.436c-0.163,0.412-0.629,0.613-1.04,0.45
						c-0.394-0.156-0.596-0.589-0.469-0.987l0.01-0.03c0.455-1.421,0.875-2.85,1.154-4.308c0.318-1.449,0.471-2.925,0.585-4.391
						c0.089-1.47,0.068-2.942-0.059-4.394c-0.127-1.425-0.378-2.946-0.763-4.167l-0.025-0.08c-0.234-0.74,0.177-1.529,0.917-1.763
						c0.74-0.234,1.529,0.177,1.763,0.917C124.742,298.796,124.751,298.829,124.759,298.858z"/>
				</g>
				<g>
					<path style="fill:#563B24;" d="M120.616,296.209c-0.529-1.282-1.188-2.566-1.915-3.749c-0.731-1.185-1.564-2.29-2.492-3.187
						c-0.559-0.541-0.574-1.432-0.033-1.991c0.541-0.559,1.432-0.574,1.991-0.033c0.055,0.053,0.11,0.117,0.154,0.176
						c0.967,1.305,1.673,2.685,2.253,4.086c0.575,1.41,1.031,2.816,1.378,4.301c0.088,0.375-0.146,0.75-0.521,0.838
						c-0.338,0.079-0.676-0.102-0.804-0.413L120.616,296.209z"/>
				</g>
				<g>
					<path style="fill:#563B24;" d="M122.432,295.414c0.039-1.234-0.025-2.523-0.183-3.749c-0.16-1.23-0.433-2.43-0.856-3.487
						c-0.289-0.723,0.062-1.544,0.785-1.833c0.723-0.289,1.543,0.063,1.833,0.785c0.032,0.08,0.056,0.16,0.073,0.241l0.003,0.017
						c0.287,1.443,0.329,2.839,0.261,4.202c-0.076,1.369-0.247,2.682-0.537,4.024c-0.081,0.377-0.453,0.616-0.83,0.535
						c-0.335-0.072-0.561-0.374-0.55-0.704L122.432,295.414z"/>
				</g>
			</g>
			<g>
				
					<path style="fill:none;stroke:#563B24;stroke-width:2.8069;stroke-linecap:round;stroke-linejoin:round;stroke-miterlimit:10;" d="
					M110.961,359.841c0,0,1.422-14.218-5.119-18.199c-6.54-3.981-11.09-4.266-13.649-6.54c-2.559-2.275-7.678-10.806-11.943-12.796
					c-4.265-1.991-8.815-2.275-9.668,0c-0.853,2.275,4.266,5.119,5.119,8.247c0.853,3.128,5.972,13.365,11.375,14.787"/>
				
					<path style="fill:none;stroke:#563B24;stroke-width:2.8069;stroke-linecap:round;stroke-linejoin:round;stroke-miterlimit:10;" d="
					M85.652,311.783c0,0,5.989-0.853,6.54,6.256c0.551,7.109,0,17.062,0,17.062"/>
				
					<path style="fill:none;stroke:#563B24;stroke-width:2.8069;stroke-linecap:round;stroke-linejoin:round;stroke-miterlimit:10;" d="
					M78.827,305.249c0,0,7.106-1.144,6.825,11.368c-0.253,11.285,0,10.507,0,10.507"/>
				
					<path style="fill:none;stroke:#563B24;stroke-width:2.8069;stroke-linecap:round;stroke-linejoin:round;stroke-miterlimit:10;" d="
					M72.003,299.271c0,0,6.825-0.569,6.825,9.668c0,10.237,0,11.764,0,11.764"/>
				
					<path style="fill:none;stroke:#563B24;stroke-width:2.8069;stroke-linecap:round;stroke-linejoin:round;stroke-miterlimit:10;" d="
					M72.003,322.305c0,0-0.284-12.796,0-19.621c0.284-6.825-7.481-8.481-7.481-8.481s0,25.877,0,31.565S80.265,347.329,85.66,353.3
					c5.395,5.972,5.128,15.356,5.128,15.356"/>
			</g>
		</g>
		<text transform="matrix(1 0 0 1 55.2819 407.0867)"><tspan x="0" y="0" style="fill:#D39C9C; font-family:'BlackJack'; font-size:29.454px;">Mental</tspan><tspan x="16.647" y="24.922" style="fill:#563B24; font-family:'ArchivoBlack-Regular'; font-size:28px;">health</tspan></text>
	</g>
	<g>
		<text transform="matrix(1 0 0 1 442.2411 189.8884)"><tspan x="0" y="0" style="fill:#D39C9C; font-family:'BlackJack'; font-size:29.454px;">Mental</tspan><tspan x="16.647" y="24.921" style="fill:#563B24; font-family:'ArchivoBlack-Regular'; font-size:28px;">health</tspan></text>
		<g>
			<g>
				<path style="fill:#D39C9C;" d="M500.715,136.597c-6.009-9.175-18.358-10.928-18.358-10.928s-0.78,7.12,4.374,16.051
					c3.507,6.078,11.443,10.994,15.083,12.913l-52.222,1.835c0,0,3.288-18.531,12.559-20.001c0,0,3.358-10.948,10.635-13.042
					c0,0,1.95-10.322,11.326-14.055c8.996-3.581,13.277,1.761,13.277,1.761s3.166-7.004,9.351-6.546
					c6.218,0.46,7.988,4.914,7.988,4.914s10.042-6.888,20.718,0.524c11.649,8.088,10.543,17.531,10.543,17.531
					s9.675,2.451,14.166,11.355c4.915,9.745,1.013,17.558,1.013,17.558l-50.753-1.793c3.573-1.689,11.557-3.327,14.881-9.226
					c4.893-8.684,6.878-19.781,6.878-19.781s-11.946,1.968-17.662,10.838c0,0-1.267-11.883-7.16-19.68c0,0-3.203,0.534-4.621,5.594
					C500.802,129.306,500.715,136.597,500.715,136.597z"/>
				<path style="fill:none;stroke:#FCBEBE;stroke-width:2.9319;stroke-linecap:round;stroke-miterlimit:10;" d="M449.593,156.469
					c0,0,3.288-18.531,12.559-20.001c0,0,3.358-10.948,10.635-13.042c0,0,1.95-10.322,11.326-14.055
					c8.996-3.581,13.277,1.761,13.277,1.761s3.166-7.004,9.351-6.546c6.218,0.46,7.988,4.914,7.988,4.914s10.042-6.888,20.718,0.524
					c11.649,8.088,10.543,17.531,10.543,17.531s9.675,2.451,14.166,11.355c4.915,9.745,1.013,17.558,1.013,17.558"/>
				
					<line style="fill:none;stroke:#563B24;stroke-width:3.1826;stroke-linecap:round;stroke-linejoin:round;stroke-miterlimit:10;" x1="438.715" y1="156.469" x2="575.521" y2="156.469"/>
			</g>
			
				<path style="fill:none;stroke:#563B24;stroke-width:3.1826;stroke-linecap:round;stroke-linejoin:round;stroke-miterlimit:10;" d="
				M507.352,116.827c0,0-7.332,8.104-7.332,20.066s7.332,19.295,7.332,19.295s7.16-9.068,7.16-19.68
				S507.352,116.827,507.352,116.827z"/>
			
				<path style="fill:none;stroke:#563B24;stroke-width:3.1826;stroke-linecap:round;stroke-linejoin:round;stroke-miterlimit:10;" d="
				M532.175,125.67c0,0-10.803,1.653-18.358,10.928s-6.501,19.59-6.501,19.59s11.279-2.509,17.981-10.737
				C531.999,137.223,532.175,125.67,532.175,125.67z"/>
			
				<path style="fill:none;stroke:#563B24;stroke-width:3.1826;stroke-linecap:round;stroke-linejoin:round;stroke-miterlimit:10;" d="
				M482.358,125.67c0,0,10.803,1.653,18.358,10.928s6.501,19.59,6.501,19.59s-11.279-2.509-17.981-10.737
				C482.533,137.223,482.358,125.67,482.358,125.67z"/>
		</g>
	</g>
</g>
</svg>
